<svg width="1990" height="547" viewBox="0 0 1990 547" fill="none" xmlns="http://www.w3.org/2000/svg">
<path d="M0 210.552H446V26H0V210.552Z" fill="#B88353"/>
<path d="M30.7583 210.551H76.8966V87.5173H30.7583V210.551Z" fill="#DD342E"/>
<path d="M169.172 210.552H215.311V56.7583H169.172V210.552Z" fill="#ECBA16"/>
<path d="M76.8966 210.552H123.035V102.897H76.8966V210.552Z" fill="#25B99A"/>
<path d="M123.034 210.551H169.172V87.5173H123.034V210.551Z" fill="#A2D672"/>
<path d="M0 395.103H446V210.552H0V395.103Z" fill="#8C5D37"/>
<path d="M0 472H184.552V395.103H0V472Z" fill="#B88353"/>
<path d="M261.448 472H446V395.103H261.448V472Z" fill="#B88353"/>
<path d="M99.9658 433.551C99.9658 437.796 96.5206 441.241 92.2757 441.241C88.0309 441.241 84.5857 437.796 84.5857 433.551C84.5857 429.307 88.0309 425.861 92.2757 425.861C96.5206 425.861 99.9658 429.307 99.9658 433.551Z" fill="#8C5D37"/>
<path d="M361.414 433.551C361.414 437.796 357.969 441.241 353.724 441.241C349.479 441.241 346.034 437.796 346.034 433.551C346.034 429.307 349.479 425.861 353.724 425.861C357.969 425.861 361.414 429.307 361.414 433.551Z" fill="#8C5D37"/>
<path d="M184.552 472H261.448V395.103H184.552V472V472Z" fill="#8C5D37"/>
<path d="M30.7583 118.276H76.8966V87.5173H30.7583V118.276Z" fill="#B12621"/>
<path d="M76.8966 133.655H123.035V102.897H76.8966V133.655Z" fill="#199172"/>
<path d="M123.034 118.276H169.172V87.5173H123.034V118.276Z" fill="#88C057"/>
<path d="M169.172 87.5175H215.311V56.7583H169.172V87.5175Z" fill="#ED8A19"/>
<path d="M323.288 190.974L284.516 210.552L228.582 99.8898L270.206 79.981L323.288 190.974Z" fill="#25B99A"/>
<path d="M270.204 79.9802L228.579 99.889L215.307 72.1369L256.932 52.228L270.204 79.9802Z" fill="#199172"/>
<path d="M46.1383 395.103H107.656V256.69H46.1383V395.103Z" fill="#25B99A"/>
<path d="M46.1383 287.448H107.656V256.69H46.1383V287.448Z" fill="#199172"/>
<path d="M107.655 395.103H169.172V241.31H107.655V395.103Z" fill="#A2D672"/>
<path d="M107.655 272.069H169.172V241.311H107.655V272.069Z" fill="#88C057"/>
<path d="M76.8966 372.034C72.6439 372.034 69.2066 368.589 69.2066 364.344V318.205C69.2066 313.961 72.6439 310.515 76.8966 310.515C81.1493 310.515 84.5866 313.961 84.5866 318.205V364.344C84.5858 368.589 81.1493 372.034 76.8966 372.034Z" fill="#199172"/>
<path d="M138.414 372.034C134.161 372.034 130.724 368.589 130.724 364.344V302.826C130.724 298.582 134.161 295.136 138.414 295.136C142.667 295.136 146.104 298.582 146.104 302.826V364.344C146.103 368.59 142.666 372.034 138.414 372.034Z" fill="#88C057"/>
<path d="M369.103 395.103H207.621C216.933 381.131 216.933 362.937 207.621 348.965H369.103C381.845 348.965 392.172 359.292 392.172 372.034C392.172 384.776 381.845 395.103 369.103 395.103Z" fill="#DD342E"/>
<path d="M392.172 348.966H230.69C240.002 334.993 240.002 316.8 230.69 302.827H392.172C404.914 302.827 415.241 313.154 415.241 325.897C415.241 338.638 404.914 348.966 392.172 348.966Z" fill="#ECBA16"/>
<path d="M369.103 302.827H207.621C216.933 288.855 216.933 270.661 207.621 256.69H369.103C381.845 256.69 392.172 267.017 392.172 279.759C392.172 292.501 381.845 302.827 369.103 302.827Z" fill="#25B99A"/>
<path d="M528.336 329.559H552.291V462.762H624.049V472H528.336V329.559ZM745.526 329.559H769.481V472H745.526V329.559ZM908.36 329.559H965.723C973.315 329.559 980.261 330.418 986.563 332.137C992.937 333.784 998.38 336.147 1002.89 339.227C1007.47 342.306 1011.02 345.994 1013.53 350.291C1016.03 354.588 1017.29 359.314 1017.29 364.471C1017.29 368.41 1016.89 371.919 1016.1 374.998C1015.32 378.077 1013.92 380.942 1011.91 383.592C1009.91 386.17 1007.22 388.641 1003.86 391.004C1000.56 393.296 996.374 395.659 991.29 398.094V398.523C996.374 399.311 1000.96 400.672 1005.04 402.605C1009.12 404.539 1012.6 407.01 1015.46 410.018C1018.4 412.954 1020.65 416.427 1022.23 420.438C1023.8 424.376 1024.59 428.709 1024.59 433.436C1024.59 438.807 1023.41 443.855 1021.05 448.582C1018.75 453.237 1015.42 457.319 1011.06 460.828C1006.76 464.266 1001.53 466.987 995.372 468.992C989.285 470.997 982.445 472 974.854 472H908.36V329.559ZM932.315 393.689H962.823C967.621 393.689 971.882 393.009 975.606 391.648C979.33 390.288 982.481 388.426 985.059 386.062C987.638 383.628 989.571 380.763 990.86 377.469C992.221 374.103 992.901 370.486 992.901 366.619C992.901 362.465 992.113 358.706 990.538 355.34C988.962 351.902 986.492 348.966 983.126 346.531C979.832 344.096 975.606 342.234 970.45 340.945C965.365 339.656 959.242 339.012 952.081 339.012H932.315V393.689ZM932.315 461.58H958.204C965.151 461.58 971.166 460.936 976.251 459.646C981.407 458.286 985.632 456.424 988.927 454.061C992.292 451.626 994.763 448.725 996.339 445.359C997.986 441.993 998.809 438.305 998.809 434.295C998.809 429.783 998.093 425.594 996.661 421.727C995.229 417.859 992.865 414.529 989.571 411.736C986.348 408.872 982.087 406.616 976.788 404.969C971.56 403.322 965.115 402.498 957.452 402.498H932.315V461.58ZM1153.91 329.559H1203.32C1211.85 329.559 1219.33 330.49 1225.77 332.352C1232.22 334.142 1237.59 336.684 1241.89 339.979C1246.18 343.273 1249.41 347.212 1251.56 351.795C1253.78 356.307 1254.89 361.248 1254.89 366.619C1254.89 371.059 1254.03 375.213 1252.31 379.08C1250.66 382.947 1248.3 386.456 1245.22 389.607C1242.21 392.687 1238.56 395.372 1234.26 397.664C1229.96 399.884 1225.24 401.639 1220.08 402.928L1271.97 472H1244.14L1194.62 405.076H1177.86V472H1153.91V329.559ZM1177.86 397.879H1191.72C1197.09 397.879 1202.03 397.163 1206.55 395.73C1211.13 394.298 1215.07 392.293 1218.36 389.715C1221.73 387.065 1224.34 383.878 1226.2 380.154C1228.07 376.43 1229 372.241 1229 367.586C1229 363.289 1228.25 359.35 1226.74 355.77C1225.31 352.189 1223.23 349.145 1220.51 346.639C1217.86 344.061 1214.67 342.055 1210.95 340.623C1207.3 339.191 1203.29 338.475 1198.92 338.475H1177.86V397.879ZM1447.26 326.336L1514.29 472H1489.91L1468.21 424.52H1407.09L1384.63 472H1372.6L1441.25 326.336H1447.26ZM1411.28 415.281H1463.8L1437.92 358.885L1411.28 415.281ZM1634.27 329.559H1683.68C1692.2 329.559 1699.69 330.49 1706.13 332.352C1712.58 334.142 1717.95 336.684 1722.24 339.979C1726.54 343.273 1729.76 347.212 1731.91 351.795C1734.13 356.307 1735.24 361.248 1735.24 366.619C1735.24 371.059 1734.38 375.213 1732.66 379.08C1731.02 382.947 1728.65 386.456 1725.57 389.607C1722.57 392.687 1718.91 395.372 1714.62 397.664C1710.32 399.884 1705.59 401.639 1700.44 402.928L1752.32 472H1724.5L1674.98 405.076H1658.22V472H1634.27V329.559ZM1658.22 397.879H1672.08C1677.45 397.879 1682.39 397.163 1686.9 395.73C1691.49 394.298 1695.42 392.293 1698.72 389.715C1702.08 387.065 1704.7 383.878 1706.56 380.154C1708.42 376.43 1709.35 372.241 1709.35 367.586C1709.35 363.289 1708.6 359.35 1707.1 355.77C1705.67 352.189 1703.59 349.145 1700.87 346.639C1698.22 344.061 1695.03 342.055 1691.31 340.623C1687.65 339.191 1683.64 338.475 1679.28 338.475H1658.22V397.879ZM1867.14 329.559L1916.55 401.746L1965.75 329.559H1978.75L1923.54 410.447V472H1899.58V412.703L1842.65 329.559H1867.14Z" fill="black"/>
<path d="M540.107 39.6591L602.322 130.547L664.267 39.6591H680.632L611.113 141.502V219H580.953V144.342L509.27 39.6591H540.107ZM705.653 39.6591H735.814V219H705.653V39.6591ZM784.639 39.6591H846.853C857.583 39.6591 867.006 40.8312 875.121 43.1755C883.236 45.4297 889.998 48.6306 895.408 52.7783C900.818 56.9259 904.876 61.8851 907.581 67.6557C910.376 73.3362 911.773 79.5577 911.773 86.3202C911.773 91.9105 910.691 97.1401 908.527 102.009C906.453 106.878 903.478 111.296 899.601 115.264C895.814 119.141 891.215 122.522 885.805 125.407C880.395 128.202 874.444 130.412 867.952 132.035L933.278 219H898.248L835.898 134.74H814.799V219H784.639V39.6591ZM814.799 125.678H832.247C839.009 125.678 845.23 124.776 850.911 122.973C856.682 121.169 861.641 118.645 865.788 115.399C870.026 112.063 873.317 108.05 875.662 103.362C878.006 98.673 879.178 93.3982 879.178 87.5374C879.178 82.1274 878.231 77.1683 876.338 72.6599C874.535 68.1516 871.92 64.3196 868.493 61.1637C865.157 57.9177 861.145 55.3931 856.456 53.5898C851.858 51.7864 846.808 50.8848 841.308 50.8848H814.799V125.678ZM957.758 39.6591H988.595L1058.38 177.208H1059.87L1128.31 39.6591H1158.6V219H1128.31V71.9837H1127.36L1053.79 219H1047.56L973.177 73.2009H971.148V219H957.758V39.6591ZM1207.43 39.6591H1237.59V219H1207.43V39.6591ZM1293.18 39.6591L1355.39 130.547L1417.34 39.6591H1433.7L1364.18 141.502V219H1334.02V144.342L1262.34 39.6591H1293.18ZM1507.55 35.6016L1591.94 219H1561.24L1533.92 159.22H1456.96L1428.7 219H1413.55L1499.97 35.6016H1507.55ZM1462.24 147.588H1528.38L1495.78 76.5822L1462.24 147.588ZM1647.13 132.981V219H1616.96V39.6591H1647.13V121.35H1737.2V39.6591H1767.36V219H1737.2V132.981H1647.13ZM1813.62 39.6591H1843.78V156.109C1843.78 163.773 1845.09 170.986 1847.7 177.749C1850.32 184.421 1854.06 190.282 1858.93 195.331C1863.8 200.381 1869.66 204.393 1876.51 207.369C1883.45 210.254 1891.16 211.697 1899.64 211.697C1908.2 211.697 1915.91 210.254 1922.76 207.369C1929.62 204.393 1935.43 200.381 1940.21 195.331C1945.08 190.282 1948.78 184.421 1951.3 177.749C1953.92 170.986 1955.22 163.773 1955.22 156.109V39.6591H1968.48V156.109C1968.48 165.306 1966.99 173.962 1964.02 182.077C1961.04 190.192 1956.35 197.315 1949.95 203.446C1943.64 209.487 1935.52 214.311 1925.6 217.918C1915.69 221.434 1903.78 223.193 1889.9 223.193C1877.55 223.193 1866.59 221.434 1857.03 217.918C1847.57 214.311 1839.59 209.442 1833.09 203.311C1826.69 197.18 1821.82 190.012 1818.49 181.806C1815.24 173.511 1813.62 164.675 1813.62 155.297V39.6591Z" fill="black"/>
</svg>
